#!OML:ASF H:\IndianDance\Patient Classification 1\Patient 1\Session 1\dancer.ASF
:FULLY-SPECIFIED
:DEGREES
2450
root 6.54414 14.6978 -4.90664 -169.75 41.1121 -162.862
lowerback 7.07429 -1.48507 3.34001
upperback -7.31806 -1.54204 -1.83218
thorax -12.0608 -1.03142 -3.62467
lowerneck -15.9165 4.1484 8.71528
upperneck 21.2852 3.55737 1.7228
head 9.52438 2.73776 -0.35059
rclavicle -1.33981e-013 -2.38542e-014
rhumerus 81.1976 -18.3256 -37.4558
rradius 65.3974
rwrist -90.5603
rhand -16.6254 -5.88734
rfingers 7.12502
rthumb 9.59678 -35.6488
lclavicle -1.33981e-013 -2.38542e-014
lhumerus 46.3742 -54.6901 34.256
lradius 63.5029
lwrist 4.54593
lhand -53.2074 -15.538
lfingers 7.12502
lthumb -25.6645 12.7521
rfemur -17.5754 -12.6141 39.0517
rtibia 46.8691
rfoot -24.1066 -3.14339
rtoes 9.6077
lfemur -48.9947 26.4413 -28.2545
ltibia 39.5568
lfoot 11.9183 10.0754
ltoes 23.2525
2451
root 6.59292 14.7283 -4.95654 -169.727 41.3881 -162.687
lowerback 6.79861 -1.44048 3.25825
upperback -7.39942 -1.4848 -1.77994
thorax -11.9738 -0.990034 -3.53479
lowerneck -15.8269 4.75712 9.30534
upperneck 21.22 4.30972 1.56266
head 9.53514 3.11367 -0.401511
rclavicle 9.54166e-015 -5.725e-014
rhumerus 81.1779 -18.1936 -37.1869
rradius 65.4387
rwrist -90.5687
rhand -16.5527 -5.88825
rfingers 7.12502
rthumb 9.66689 -35.6464
lclavicle 9.54166e-015 -5.725e-014
lhumerus 46.1917 -54.1784 35.249
lradius 62.2994
lwrist 4.46684
lhand -52.9582 -15.3934
lfingers 7.12502
lthumb -25.4257 12.9309
rfemur -16.8364 -12.277 39.135
rtibia 46.3295
rfoot -23.7046 -3.37098
rtoes 9.2798
lfemur -48.0026 26.0837 -27.7402
ltibia 38.8909
lfoot 11.6744 10.821
ltoes 23.6164
2452
root 6.64055 14.7581 -5.00297 -169.822 41.5661 -162.661
lowerback 6.58442 -1.39654 3.09018
upperback -7.4883 -1.44008 -1.76748
thorax -11.9326 -0.949867 -3.43697
lowerneck -15.6893 5.33996 9.87351
upperneck 21.0923 5.0329 1.42635
head 9.51849 3.47418 -0.445392
rclavicle -3.73715e-014 -1.11319e-014
rhumerus 81.0441 -18.1102 -36.8667
rradius 65.525
rwrist -90.515
rhand -16.4942 -5.85886
rfingers 7.12502
rthumb 9.72337 -35.6144
lclavicle -3.73715e-014 -1.11319e-014
lhumerus 45.8696 -53.6985 36.2749
lradius 61.2863
lwrist 4.4685
lhand -52.7384 -15.2178
lfingers 7.12502
lthumb -25.2151 13.1363
rfemur -16.2124 -11.9636 39.1493
rtibia 45.9506
rfoot -23.2697 -3.71596
rtoes 8.9304
lfemur -46.9823 25.5388 -27.1554
ltibia 38.3459
lfoot 11.4319 11.242
ltoes 23.3637
2453
root 6.68704 14.7872 -5.04581 -170.034 41.6382 -162.791
lowerback 6.43252 -1.35068 2.84482
upperback -7.58814 -1.40353 -1.80389
thorax -11.9422 -0.909958 -3.34715
lowerneck -15.5458 5.88957 10.3849
upperneck 20.9631 5.71276 1.35546
head 9.49972 3.81771 -0.462544
rclavicle 6.12257e-014 1.27222e-013
rhumerus 80.7886 -18.0879 -36.4748
rradius 65.6464
rwrist -90.4172
rhand -16.4632 -5.80485
rfingers 7.12502
rthumb 9.75332 -35.559
lclavicle 6.12257e-014 1.27222e-013
lhumerus 45.4152 -53.2592 37.3432
lradius 60.4444
lwrist 4.51838
lhand -52.5959 -15.0713
lfingers 7.12502
lthumb -25.0786 13.302
rfemur -15.7175 -11.6961 39.0888
rtibia 45.7429
rfoot -22.8133 -4.15542
rtoes 8.61583
lfemur -46.0155 24.9336 -26.6165
ltibia 37.9234
lfoot 11.2435 11.3784
ltoes 22.8109
2454
root 6.7323 14.8152 -5.0852 -170.359 41.5991 -163.079
lowerback 6.32635 -1.30248 2.52864
upperback -7.69488 -1.37446 -1.89125
thorax -11.988 -0.870069 -3.27163
lowerneck -15.3761 6.40472 10.8328
upperneck 20.7902 6.35262 1.34209
head 9.45849 4.14236 -0.456233
rclavicle -4.77083e-014 2.22639e-014
rhumerus 80.4212 -18.1263 -36.009
rradius 65.7927
rwrist -90.2838
rhand -16.4411 -5.73706
rfingers 7.12502
rthumb 9.77457 -35.4902
lclavicle -4.77083e-014 2.22639e-014
lhumerus 44.8313 -52.8524 38.4469
lradius 59.7708
lwrist 4.58443
lhand -52.5339 -14.973
lfingers 7.12502
lthumb -25.0192 13.4086
rfemur -15.3586 -11.5023 38.9445
rtibia 45.6996
rfoot -22.3596 -4.66177
rtoes 8.37432
lfemur -45.1882 24.4193 -26.2486
ltibia 37.6468
lfoot 11.0921 11.216
ltoes 21.894
2455
root 6.77611 14.8416 -5.12156 -170.782 41.443 -163.52
lowerback 6.25135 -1.24967 2.16244
upperback -7.80884 -1.34743 -2.03078
thorax -12.0622 -0.828952 -3.22476
lowerneck -15.1959 6.881 11.2052
upperneck 20.5836 6.94897 1.37616
head 9.39915 4.44469 -0.428715
rclavicle -1.27222e-014 2.54444e-014
rhumerus 79.945 -18.2237 -35.4633
rradius 65.9561
rwrist -90.1414
rhand -16.415 -5.66771
rfingers 7.12502
rthumb 9.79975 -35.4197
lclavicle -1.27222e-014 2.54444e-014
lhumerus 44.1288 -52.4808 39.5789
lradius 59.2669
lwrist 4.64237
lhand -52.5767 -14.9098
lfingers 7.12502
lthumb -25.0602 13.466
rfemur -15.1308 -11.4025 38.712
rtibia 45.7901
rfoot -21.9435 -5.20654
rtoes 8.22651
lfemur -44.5752 24.1195 -26.1413
ltibia 37.5519
lfoot 11.0013 10.6772
ltoes 20.7045
2456
root 6.81832 14.8651 -5.15532 -171.259 41.1714 -164.067
lowerback 6.19302 -1.18791 1.79001
upperback -7.92764 -1.31084 -2.21287
thorax -12.1536 -0.784058 -3.22299
lowerneck -15.0095 7.32461 11.5288
upperneck 20.3572 7.51014 1.42706
head 9.32891 4.72788 -0.393653
rclavicle -4.69132e-014 3.49861e-014
rhumerus 79.3657 -18.38 -34.8339
rradius 66.1365
rwrist -90.0184
rhand -16.378 -5.61001
rfingers 7.12502
rthumb 9.83544 -35.3603
lclavicle -4.69132e-014 3.49861e-014
lhumerus 43.314 -52.1401 40.7247
lradius 58.9484
lwrist 4.6861
lhand -52.7072 -14.9335
lfingers 7.12502
lthumb -25.1853 13.4249
rfemur -15.013 -11.4019 38.4159
rtibia 45.9653
rfoot -21.5989 -5.76053
rtoes 8.1763
lfemur -44.2307 24.1166 -26.3156
ltibia 37.6758
lfoot 10.9528 9.72303
ltoes 19.3054
2457
root 6.85879 14.8849 -5.18675 -171.749 40.7863 -164.678
lowerback 6.13401 -1.11747 1.44377
upperback -8.04803 -1.2601 -2.42352
thorax -12.2483 -0.735147 -3.27031
lowerneck -14.8315 7.74077 11.7846
upperneck 20.1116 8.04635 1.4864
head 9.24968 4.99395 -0.349523
rclavicle -1.82882e-014 -2.8625e-014
rhumerus 78.7064 -18.5898 -34.1264
rradius 66.3249
rwrist -89.931
rhand -16.3438 -5.57478
rfingers 7.12502
rthumb 9.86847 -35.3235
lclavicle -1.82882e-014 -2.8625e-014
lhumerus 42.4072 -51.8214 41.8505
lradius 58.8281
lwrist 4.73193
lhand -52.8623 -15.0106
lfingers 7.12502
lthumb -25.3339 13.3267
rfemur -14.9723 -11.5005 38.08
rtibia 46.1614
rfoot -21.3599 -6.30137
rtoes 8.21058
lfemur -44.1866 24.4235 -26.7488
ltibia 38.0502
lfoot 10.9217 8.37637
ltoes 17.7388
2458
root 6.8974 14.9002 -5.21597 -172.208 40.2962 -165.294
lowerback 6.06902 -1.03637 1.16198
upperback -8.16623 -1.18668 -2.64337
thorax -12.3383 -0.680844 -3.36853
lowerneck -14.6905 8.13508 11.9788
upperneck 19.8636 8.56578 1.51629
head 9.17408 5.24322 -0.307775
rclavicle 1.35174e-013 6.36111e-014
rhumerus 77.9755 -18.826 -33.3615
rradius 66.5318
rwrist -89.8488
rhand -16.3072 -5.56294
rfingers 7.12502
rthumb 9.90378 -35.31
lclavicle 1.35174e-013 6.36111e-014
lhumerus 41.428 -51.5181 42.9254
lradius 58.9153
lwrist 4.80765
lhand -53.004 -15.1449
lfingers 7.12502
lthumb -25.4696 13.1732
rfemur -14.965 -11.6884 37.741
rtibia 46.3114
rfoot -21.2571 -6.81268
rtoes 8.27489
lfemur -44.4476 24.999 -27.366
ltibia 38.6992
lfoot 10.8906 6.70672
ltoes 16.0644
2459
root 6.93405 14.9101 -5.24306 -172.597 39.7106 -165.863
lowerback 5.9883 -0.946398 0.96795
upperback -8.27656 -1.08892 -2.84987
thorax -12.4105 -0.621682 -3.50606
lowerneck -14.5855 8.52059 12.1318
upperneck 19.6121 9.08789 1.47996
head 9.10504 5.48208 -0.281149
rclavicle 1.90833e-014 9.54166e-014
rhumerus 77.2121 -19.0899 -32.5474
rradius 66.739
rwrist -89.7696
rhand -16.2737 -5.57116
rfingers 7.12502
rthumb 9.93607 -35.3167
lclavicle 1.90833e-014 9.54166e-014
lhumerus 40.3912 -51.2108 43.9344
lradius 59.1966
lwrist 4.94659
lhand -53.1039 -15.3277
lfingers 7.12502
lthumb -25.5653 12.9766
rfemur -14.9459 -11.9576 37.4375
rtibia 46.352
rfoot -21.3119 -7.30484
rtoes 8.27457
lfemur -45.0035 25.7755 -28.0771
ltibia 39.638
lfoot 10.842 4.7875
ltoes 14.4442
2460
root 6.96886 14.914 -5.26795 -172.898 39.0436 -166.347
lowerback 5.8957 -0.845178 0.875114
upperback -8.37555 -0.961607 -3.02734
thorax -12.4619 -0.556177 -3.67369
lowerneck -14.5046 8.90361 12.2391
upperneck 19.3454 9.62225 1.38235
head 9.03661 5.71511 -0.26655
rclavicle -4.77083e-014 -6.99722e-014
rhumerus 76.4261 -19.3698 -31.7007
rradius 66.9477
rwrist -89.6671
rhand -16.2516 -5.59586
rfingers 7.12502
rthumb 9.95746 -35.3403
lclavicle -4.77083e-014 -6.99722e-014
lhumerus 39.3301 -50.9012 44.8352
lradius 59.6646
lwrist 5.17575
lhand -53.1731 -15.4911
lfingers 7.12502
lthumb -25.6315 12.8038
rfemur -14.8748 -12.2949 37.2008
rtibia 46.2406
rfoot -21.5431 -7.79093
rtoes 8.20168
lfemur -45.8167 26.6676 -28.7859
ltibia 40.8671
lfoot 10.7925 2.701
ltoes 12.8681
